<svg  width="400" height="38px" viewBox="800 0 800 228" enable-background="new 0 0 696 228" xml:space="preserve">
<path fill="#FFFFFF" opacity="1.000000" stroke="none" 
	d="
M541.000000,229.000000 
	C360.715302,229.000000 180.930618,229.000000 1.072964,229.000000 
	C1.072964,153.069260 1.072964,77.138428 1.072964,1.103799 
	C232.999969,1.103799 464.999969,1.103799 696.978821,1.103799 
	C696.978821,77.069344 696.978821,153.034668 696.978821,229.000000 
	C645.138428,229.000000 593.319214,229.000000 541.000000,229.000000 
M171.962570,171.090515 
	C171.920700,167.725464 171.878830,164.360428 171.964264,160.144989 
	C171.964264,158.548477 171.964264,156.951965 171.964264,155.900772 
	C164.247696,153.783813 157.148911,151.836349 149.749634,149.276489 
	C145.801514,146.076950 141.853394,142.877426 137.907700,138.905777 
	C135.549271,133.933197 133.190826,128.960632 130.645462,123.207008 
	C130.375748,118.137108 130.106033,113.067200 129.992508,107.230392 
	C131.276291,103.486008 132.560074,99.741631 134.145050,95.369392 
	C136.469681,92.263443 138.794296,89.157494 141.735809,85.765106 
	C145.506287,83.213959 149.276779,80.662804 153.816452,77.992302 
	C157.672577,76.994820 161.484573,75.430298 165.394638,75.126122 
	C172.096802,74.604721 172.198303,74.853180 171.967896,67.080849 
	C171.922302,63.384972 171.876724,59.689091 171.970978,55.073792 
	C171.926453,50.714603 171.881927,46.355419 171.977386,41.081139 
	C171.931137,37.052456 171.884888,33.023777 171.976959,28.082838 
	C171.930206,24.386816 171.883453,20.690792 171.977905,16.102291 
	C172.049271,5.991038 172.049271,5.991038 158.889557,8.678389 
	C158.889557,11.719050 158.889557,14.835980 158.234406,18.291378 
	C156.135864,26.354485 150.187180,27.677168 142.942444,20.876822 
	C142.296707,19.251863 141.527847,17.663620 141.030182,15.994512 
	C139.896423,12.192039 137.670883,11.306297 134.137772,13.001018 
	C130.676697,14.661176 127.268318,16.640135 123.606911,17.620781 
	C119.040237,18.843891 118.264793,21.113174 120.239456,25.720299 
	C120.883606,28.810539 121.527748,31.900780 121.864090,35.635235 
	C116.185997,41.352058 112.347122,41.678581 107.369179,36.853638 
	C106.063538,35.588139 104.924210,34.089447 103.444199,33.088726 
	C102.565063,32.494289 100.622505,32.082737 100.094406,32.581112 
	C96.223869,36.233871 92.590225,40.137653 88.220238,44.262165 
	C88.339844,46.203827 87.853493,48.498318 88.728096,50.000355 
	C89.895386,52.005058 92.119743,53.394253 94.000092,55.828556 
	C93.961426,58.538910 93.922760,61.249260 93.244301,64.242546 
	C91.956650,65.162537 90.737785,66.204071 89.368134,66.979156 
	C85.634293,69.092148 82.735802,66.389679 79.493057,65.283562 
	C77.829521,64.716118 74.691025,64.392578 74.196533,65.188042 
	C72.114380,68.537560 70.777451,72.350319 68.814110,76.689217 
	C66.042824,83.955254 66.064568,83.908684 72.535538,86.929977 
	C74.426071,87.812660 76.154251,89.043068 78.264168,90.785088 
	C78.470139,93.843056 78.676109,96.901024 78.222725,100.272049 
	C76.072868,101.180588 73.960648,102.759705 71.766716,102.882805 
	C61.708965,103.447144 61.700520,103.300880 62.097973,113.504227 
	C62.104309,113.666992 62.142456,113.828506 62.020321,114.899544 
	C62.011318,115.893440 61.994884,116.887337 61.994488,117.881233 
	C61.991226,125.985878 62.006805,125.712372 69.920631,126.136818 
	C72.952507,126.299431 75.900345,128.028748 79.006653,129.833405 
	C78.708099,133.106094 78.409538,136.378769 77.504982,139.933624 
	C74.065445,141.533844 70.625908,143.134064 66.370880,145.113693 
	C67.288841,147.698929 68.228371,150.344894 69.053192,153.734680 
	C69.967438,155.966995 71.029160,158.151978 71.764359,160.441772 
	C73.172028,164.826050 75.470680,166.130524 79.783722,163.703842 
	C84.659035,160.960815 89.552078,160.771332 94.011208,165.814774 
	C93.973793,168.527115 93.936371,171.239441 93.293526,174.233826 
	C91.682625,175.832748 90.047142,177.407822 88.466911,179.036499 
	C86.397949,181.168930 86.152107,183.218582 88.996559,185.731857 
	C91.739220,188.506821 94.631592,191.151474 97.188179,194.088409 
	C100.709084,198.133118 103.161049,196.621948 106.285583,193.356049 
	C112.364410,187.002121 116.374039,187.343613 122.038765,194.845581 
	C121.416801,198.227356 120.794830,201.609146 119.821823,205.657516 
	C118.220047,207.944901 118.768951,209.597778 121.293465,210.680664 
	C123.836861,211.771622 126.374489,212.876022 128.916916,213.969254 
	C139.248978,218.411942 139.249298,218.411179 143.180893,207.356262 
	C149.682434,201.435181 155.072632,202.717300 158.982040,212.000214 
	C158.982040,214.788742 158.982040,217.577255 158.982040,220.193298 
	C170.036880,224.604004 172.197388,223.166504 171.992859,211.972122 
	C171.980804,211.312531 171.889771,210.654373 171.955978,209.073196 
	C171.915680,204.713547 171.875366,200.353912 171.956589,195.080109 
	C171.915436,191.384354 171.874298,187.688583 171.957809,183.079391 
	C171.916855,179.384659 171.875900,175.689941 171.962570,171.090515 
M266.785583,112.578545 
	C267.135010,108.717133 267.484436,104.855713 267.968750,100.087440 
	C267.591034,96.056229 267.213287,92.025024 266.968933,87.126602 
	C266.352417,83.405907 265.735901,79.685211 265.010040,75.160263 
	C263.618530,71.105858 262.227020,67.051445 260.962738,62.263321 
	C259.016449,58.494667 257.070129,54.726017 254.828339,50.317677 
	C251.902573,46.505497 248.976807,42.693317 245.781586,38.265717 
	C242.539429,35.141327 239.297272,32.016937 235.778412,28.266445 
	C230.555878,24.829294 225.333359,21.392143 219.767578,17.297922 
	C208.897278,12.669510 198.011566,8.004024 185.898331,8.053823 
	C182.503647,8.067780 178.101837,4.134900 175.930527,8.831994 
	C174.468781,11.994125 175.340591,16.234982 175.015991,20.916946 
	C175.068375,25.941484 175.120758,30.966024 175.019302,36.914249 
	C175.069733,41.938389 175.120178,46.962528 175.015549,52.910942 
	C175.066757,57.938190 175.117966,62.965435 175.019592,68.919556 
	C175.069885,74.941368 175.120178,80.963181 175.017242,87.911003 
	C175.066559,93.271080 175.115891,98.631165 175.018890,104.911591 
	C175.068222,109.272766 175.117554,113.633949 175.025314,118.918434 
	C175.072876,123.608589 175.120438,128.298737 175.023193,133.915573 
	C175.071045,139.273727 175.118881,144.631866 175.025497,150.913345 
	C175.072464,155.606689 175.119446,160.300049 175.028931,165.914551 
	C175.075226,170.274094 175.121506,174.633621 175.032578,179.906662 
	C175.077560,183.602081 175.122528,187.297501 175.032791,191.898682 
	C175.077332,195.264038 175.121872,198.629395 175.035721,202.903519 
	C175.079468,206.266983 175.123215,209.630447 175.038116,213.859665 
	C174.953445,221.995956 174.953445,221.996078 183.130951,221.997101 
	C186.264313,221.997498 189.405960,221.850510 192.529404,222.026550 
	C199.906357,222.442307 205.567810,219.921051 209.008789,212.176987 
	C209.283722,208.782913 209.558670,205.388855 209.958603,201.089828 
	C209.916565,197.724197 209.874527,194.358551 209.955902,190.128784 
	C210.341034,187.102051 210.726166,184.075317 211.726059,180.742661 
	C213.227676,179.810867 214.718933,178.861847 216.233063,177.950836 
	C219.520844,175.972687 222.820312,174.013977 226.815903,171.978714 
	C230.226898,169.354477 233.637894,166.730255 237.653366,163.811890 
	C240.807281,160.554092 243.961182,157.296295 247.723892,153.743240 
	C249.760056,150.827576 251.796234,147.911926 254.149033,144.360947 
	C255.806168,141.256683 257.463287,138.152405 259.734863,134.675598 
	C261.103088,131.115692 262.471344,127.555801 263.970825,123.202530 
	C264.682129,119.819054 265.393433,116.435577 266.785583,112.578545 
z"/>
<path fill="#666CDD" opacity="1.000000" stroke="none" 
	d="
M175.165207,103.991241 
	C175.115891,98.631165 175.066559,93.271080 175.482086,87.450462 
	C177.241119,86.988365 178.535339,86.986816 179.906067,87.381104 
	C180.934692,89.193481 181.583435,91.083191 182.901810,91.928490 
	C185.682251,93.711166 188.813248,94.947021 191.896713,96.454315 
	C202.006744,87.507217 216.418976,89.593605 221.489746,101.012466 
	C220.061737,101.368774 218.977020,101.708427 217.587234,101.880920 
	C212.481689,93.956100 203.529144,92.863472 196.213516,99.033699 
	C197.191986,100.691887 198.157700,102.328468 198.786087,104.019447 
	C197.354599,104.379211 196.260452,104.684586 195.002533,104.662888 
	C192.276962,101.521637 190.208878,103.401466 187.778870,104.986572 
	C186.350098,104.617973 185.258148,104.305702 184.205841,103.658478 
	C185.205902,102.237602 186.166351,101.151695 187.593719,99.537849 
	C185.155899,98.042618 183.076965,96.767509 180.257416,95.038162 
	C180.079971,98.797485 179.957382,101.394859 179.445648,103.994385 
	C177.759399,103.994774 176.462296,103.993011 175.165207,103.991241 
z"/>
<path fill="#AA84FD" opacity="1.000000" stroke="none" 
	d="
M175.168442,19.993248 
	C175.340591,16.234982 174.468781,11.994125 175.930527,8.831994 
	C178.101837,4.134900 182.503647,8.067780 185.898331,8.053823 
	C198.011566,8.004024 208.897278,12.669510 219.627808,17.766256 
	C218.312683,18.862717 217.137329,19.490841 215.582275,20.057146 
	C203.941574,15.627430 192.703888,11.149137 179.831543,12.177513 
	C179.831543,15.058122 179.831543,17.526011 179.442947,19.995035 
	C177.759048,19.995197 176.463745,19.994223 175.168442,19.993248 
z"/>
<path fill="#1E54BB" opacity="1.000000" stroke="none" 
	d="
M211.111313,181.048584 
	C210.726166,184.075317 210.341034,187.102051 209.528244,190.562851 
	C208.122955,190.995895 207.145325,190.994858 206.104065,190.564026 
	C205.190948,189.093506 204.368317,187.176376 203.487747,187.149384 
	C195.753128,186.912323 188.008179,187.012115 180.262039,187.012115 
	C180.080078,188.698059 179.956192,189.845917 179.442978,190.995544 
	C177.758270,190.995850 176.462891,190.994385 175.167511,190.992920 
	C175.122528,187.297501 175.077560,183.602081 175.488800,179.451401 
	C177.240753,178.995102 178.536484,178.994049 179.901306,179.422455 
	C180.812912,180.896683 181.614243,182.803574 182.504654,182.846115 
	C188.237640,183.120087 193.990097,182.986206 199.718521,182.986206 
	C199.909882,181.285187 200.038818,180.139084 200.534195,178.994415 
	C201.877838,178.994904 202.855026,178.993927 203.899612,179.362869 
	C204.106033,180.761383 204.245087,181.789978 204.523575,183.850006 
	C205.800827,181.988068 206.482910,180.993744 207.508728,180.015289 
	C208.938736,180.370285 210.025024,180.709427 211.111313,181.048584 
z"/>
<path fill="#0B4EB2" opacity="1.000000" stroke="none" 
	d="
M209.833618,201.994781 
	C209.558670,205.388855 209.283722,208.782913 208.577255,212.570801 
	C207.056076,212.631378 205.966431,212.298157 204.874619,211.542328 
	C204.560898,210.793839 204.252945,210.187347 203.937241,210.183273 
	C196.667618,210.089478 189.394852,209.969925 182.130112,210.151794 
	C181.341202,210.171539 180.597656,212.003555 179.444092,212.996094 
	C177.759079,212.996140 176.463013,212.995026 175.166946,212.993912 
	C175.123215,209.630447 175.079468,206.266983 175.489059,202.450668 
	C177.239380,201.996704 178.536346,201.995590 179.900620,202.422531 
	C180.820297,203.895172 181.645508,205.819214 182.529312,205.846497 
	C190.250107,206.085007 197.981384,205.984344 205.709152,205.984344 
	C205.904144,204.283875 206.035416,203.139175 206.533630,201.996078 
	C207.878265,201.996719 208.855942,201.995758 209.833618,201.994781 
z"/>
<path fill="#1451B7" opacity="1.000000" stroke="none" 
	d="
M209.896103,201.542297 
	C208.855942,201.995758 207.878265,201.996719 206.470566,201.566986 
	C205.187622,200.095551 204.361664,198.178528 203.477585,198.151352 
	C195.750473,197.913773 188.012955,198.014038 180.273560,198.014038 
	C180.086853,199.702118 179.960098,200.848297 179.833328,201.994476 
	C178.536346,201.995590 177.239380,201.996704 175.554398,201.996277 
	C175.121872,198.629395 175.077332,195.264038 175.100159,191.445801 
	C176.462891,190.994385 177.758270,190.995850 179.517517,191.422760 
	C180.817841,192.560959 181.639832,193.871399 182.493057,193.892044 
	C189.452652,194.060516 196.422165,194.103134 203.376999,193.855850 
	C204.339951,193.821609 205.239044,191.992188 206.167694,190.993835 
	C207.145325,190.994858 208.122955,190.995895 209.466537,190.994919 
	C209.874527,194.358551 209.916565,197.724197 209.896103,201.542297 
z"/>
<path fill="#2858C0" opacity="1.000000" stroke="none" 
	d="
M203.832230,178.992950 
	C202.855026,178.993927 201.877838,178.994904 200.468597,178.602524 
	C198.712769,176.812012 197.489059,174.344574 196.047256,174.209778 
	C190.829453,173.721954 185.538391,174.017700 180.234100,174.017700 
	C180.070587,176.042114 179.951416,177.517548 179.832245,178.992996 
	C178.536484,178.994049 177.240753,178.995102 175.556396,178.994659 
	C175.121506,174.633621 175.075226,170.274094 175.486496,165.455597 
	C177.240570,164.995529 178.537079,164.994415 179.902664,165.427765 
	C180.058899,167.120621 180.146072,168.378998 180.238159,169.708435 
	C184.650818,169.708435 188.697205,169.708435 192.756424,169.708435 
	C192.914795,168.279633 193.041550,167.136002 193.534637,165.994095 
	C194.877869,165.994675 195.854782,165.993546 196.900742,166.380417 
	C197.696365,168.042175 198.130737,170.019714 199.201569,170.464325 
	C203.223648,172.134308 204.662643,174.859299 203.832230,178.992950 
z"/>
<path fill="#1A53B9" opacity="1.000000" stroke="none" 
	d="
M122.168297,193.995270 
	C116.374039,187.343613 112.364410,187.002121 106.285583,193.356049 
	C103.161049,196.621948 100.709084,198.133118 97.188179,194.088409 
	C94.631592,191.151474 91.739220,188.506821 89.299423,185.321686 
	C90.774788,184.596161 91.947289,184.280792 93.418030,184.104950 
	C96.116852,186.940277 98.517441,189.636078 101.249878,192.704529 
	C103.343643,190.415665 104.686096,188.722168 106.256630,187.276428 
	C109.996010,183.834183 114.725494,184.209442 118.781410,185.622681 
	C122.243645,186.829056 125.892189,189.197464 125.464737,193.998718 
	C124.121735,193.997665 123.145012,193.996460 122.168297,193.995270 
z"/>
<path fill="#947CF3" opacity="1.000000" stroke="none" 
	d="
M88.881882,43.962280 
	C92.590225,40.137653 96.223869,36.233871 100.094406,32.581112 
	C100.622505,32.082737 102.565063,32.494289 103.444199,33.088726 
	C104.924210,34.089447 106.063538,35.588139 107.369179,36.853638 
	C112.347122,41.678581 116.185997,41.352058 122.411926,35.314735 
	C124.010201,35.009163 125.060638,35.024090 126.064362,35.413067 
	C125.415596,40.508297 121.988091,42.864185 118.026619,43.811249 
	C111.193794,45.444767 105.540749,42.972385 101.732018,36.971977 
	C98.633102,39.874432 95.873978,42.458637 92.778175,44.895210 
	C91.254959,44.485809 90.068420,44.224045 88.881882,43.962280 
z"/>
<path fill="#034BAE" opacity="1.000000" stroke="none" 
	d="
M204.876785,211.964935 
	C205.966431,212.298157 207.056076,212.631378 208.489624,212.979080 
	C205.567810,219.921051 199.906357,222.442307 192.529404,222.026550 
	C189.405960,221.850510 186.264313,221.997498 183.130951,221.997101 
	C174.953445,221.996078 174.953445,221.995956 175.102539,213.426788 
	C176.463013,212.995026 177.759079,212.996140 179.509216,213.429321 
	C180.492859,215.211166 181.020615,217.734238 181.552277,217.735062 
	C189.771133,217.747742 198.706726,220.242615 204.876785,211.964935 
z"/>
<path fill="#335BC5" opacity="1.000000" stroke="none" 
	d="
M93.889549,165.041260 
	C89.552078,160.771332 84.659035,160.960815 79.783722,163.703842 
	C75.470680,166.130524 73.172028,164.826050 71.764359,160.441772 
	C71.029160,158.151978 69.967438,155.966995 69.422958,153.307861 
	C70.806183,152.586014 71.819641,152.291000 73.002533,152.323761 
	C74.376160,155.173050 75.580360,157.694550 76.751198,160.146210 
	C88.637199,155.811783 94.269173,157.126129 97.338425,164.772003 
	C95.861732,164.902161 94.875641,164.971710 93.889549,165.041260 
z"/>
<path fill="#7C74E8" opacity="1.000000" stroke="none" 
	d="
M69.167816,75.993561 
	C70.777451,72.350319 72.114380,68.537560 74.196533,65.188042 
	C74.691025,64.392578 77.829521,64.716118 79.493057,65.283562 
	C82.735802,66.389679 85.634293,69.092148 89.368134,66.979156 
	C90.737785,66.204071 91.956650,65.162537 93.983231,64.154350 
	C95.623856,64.663612 96.525551,65.261078 97.245407,66.119453 
	C91.216026,74.475258 83.912064,72.094406 76.958099,69.038078 
	C75.557739,71.590820 74.336967,73.816193 72.721420,76.032104 
	C71.273705,76.012939 70.220757,76.003250 69.167816,75.993561 
z"/>
<path fill="#A582FB" opacity="1.000000" stroke="none" 
	d="
M120.171410,24.995195 
	C118.264793,21.113174 119.040237,18.843891 123.606911,17.620781 
	C127.268318,16.640135 130.676697,14.661176 134.137772,13.001018 
	C137.670883,11.306297 139.896423,12.192039 141.030182,15.994512 
	C141.527847,17.663620 142.296707,19.251863 142.426010,21.349293 
	C140.899811,21.894100 139.890030,21.966440 138.553940,21.862946 
	C137.689819,20.095987 137.152023,18.504860 136.566528,16.772640 
	C133.610062,17.996098 131.008606,18.818575 128.676270,20.122463 
	C126.972252,21.075098 125.622421,22.661301 123.799896,24.102577 
	C122.380524,24.491777 121.275970,24.743486 120.171410,24.995195 
z"/>
<path fill="#0B4EB2" opacity="1.000000" stroke="none" 
	d="
M142.830521,207.994812 
	C139.249298,218.411179 139.248978,218.411942 128.916916,213.969254 
	C126.374489,212.876022 123.836861,211.771622 121.293465,210.680664 
	C118.768951,209.597778 118.220047,207.944901 120.391541,205.326172 
	C122.012505,205.007919 123.063751,205.020996 124.090469,205.398834 
	C127.947411,208.030899 131.828888,210.298233 135.971436,212.718063 
	C137.208710,210.272461 138.045135,208.619171 139.218384,207.020172 
	C140.646957,207.381241 141.738739,207.688034 142.830521,207.994812 
z"/>
<path fill="#0E4FB4" opacity="1.000000" stroke="none" 
	d="
M143.005707,207.675537 
	C141.738739,207.688034 140.646957,207.381241 139.280579,206.671783 
	C141.551697,201.535904 145.732346,198.875366 150.876007,199.219055 
	C157.288147,199.647507 161.634903,203.309326 162.482208,209.999496 
	C161.069229,210.371902 160.009186,210.739410 158.949127,211.106934 
	C155.072632,202.717300 149.682434,201.435181 143.005707,207.675537 
z"/>
<path fill="#5E6AD9" opacity="1.000000" stroke="none" 
	d="
M62.165756,113.990608 
	C62.142456,113.828506 62.104309,113.666992 62.097973,113.504227 
	C61.700520,103.300880 61.708965,103.447144 71.766716,102.882805 
	C73.960648,102.759705 76.072868,101.180588 78.889282,100.171524 
	C80.648796,100.378548 81.741745,100.686096 82.804611,101.333229 
	C78.715683,107.410873 72.463364,107.918968 66.171021,108.283371 
	C66.047058,110.384544 65.940659,112.188065 65.467407,113.993668 
	C64.122292,113.994034 63.144024,113.992325 62.165756,113.990608 
z"/>
<path fill="#A080F8" opacity="1.000000" stroke="none" 
	d="
M138.880264,22.038778 
	C139.890030,21.966440 140.899811,21.894100 142.412033,21.759750 
	C150.187180,27.677168 156.135864,26.354485 158.875793,18.263201 
	C160.622650,18.488033 161.728134,18.741043 162.802521,19.356052 
	C160.238312,26.657322 156.493240,30.195269 150.716309,29.885319 
	C145.494400,29.605146 140.924713,27.514500 138.880264,22.038778 
z"/>
<path fill="#5065D3" opacity="1.000000" stroke="none" 
	d="
M62.093040,114.445076 
	C63.144024,113.992325 64.122292,113.994034 65.540039,114.440475 
	C65.979515,117.125839 65.979515,119.366486 65.979515,121.837784 
	C72.718246,122.282608 80.011467,120.388283 82.341225,128.776855 
	C80.861969,128.905884 79.874222,128.975006 78.886482,129.044144 
	C75.900345,128.028748 72.952507,126.299431 69.920631,126.136818 
	C62.006805,125.712372 61.991226,125.985878 61.994488,117.881233 
	C61.994884,116.887337 62.011318,115.893440 62.093040,114.445076 
z"/>
<path fill="#034BAE" opacity="1.000000" stroke="none" 
	d="
M158.965576,211.553574 
	C160.009186,210.739410 161.069229,210.371902 162.547302,210.428650 
	C163.208298,213.954407 161.838684,218.120270 167.767487,217.756531 
	C167.902191,215.123337 168.033356,212.559326 168.531647,209.996796 
	C169.877670,209.997391 170.856583,209.996475 171.835480,209.995560 
	C171.889771,210.654373 171.980804,211.312531 171.992859,211.972122 
	C172.197388,223.166504 170.036880,224.604004 158.982040,220.193298 
	C158.982040,217.577255 158.982040,214.788742 158.965576,211.553574 
z"/>
<path fill="#335BC5" opacity="1.000000" stroke="none" 
	d="
M150.050125,149.888870 
	C157.148911,151.836349 164.247696,153.783813 171.964264,155.900772 
	C171.964264,156.951965 171.964264,158.548477 171.533569,160.571777 
	C170.122925,160.997894 169.142960,160.997223 168.076782,160.610199 
	C166.494751,159.485153 165.049530,158.610306 163.494034,158.032288 
	C157.978790,155.982788 152.425873,154.034622 147.180679,151.910446 
	C148.332794,151.144836 149.191452,150.516861 150.050125,149.888870 
z"/>
<path fill="#AA84FD" opacity="1.000000" stroke="none" 
	d="
M162.833603,18.994053 
	C161.728134,18.741043 160.622650,18.488033 159.203369,18.093967 
	C158.889557,14.835980 158.889557,11.719050 158.889557,8.678389 
	C172.049271,5.991038 172.049271,5.991038 171.539978,16.550217 
	C170.122467,16.997240 169.142868,16.996340 168.092682,16.564316 
	C168.022079,14.884406 168.022079,13.635617 168.022079,12.358408 
	C166.103256,12.358408 164.613876,12.358408 162.833603,12.358408 
	C162.833603,14.803923 162.833603,16.898987 162.833603,18.994053 
z"/>
<path fill="#7973E6" opacity="1.000000" stroke="none" 
	d="
M171.830826,67.992798 
	C172.198303,74.853180 172.096802,74.604721 165.394638,75.126122 
	C161.484573,75.430298 157.672577,76.994820 153.195160,77.814949 
	C151.343796,77.077393 150.113754,76.517197 149.061890,75.635147 
	C154.499069,73.873611 159.797318,72.557259 164.988449,70.904488 
	C166.231720,70.508644 167.118500,68.993118 168.535400,67.993805 
	C169.877975,67.994301 170.854401,67.993546 171.830826,67.992798 
z"/>
<path fill="#7973E6" opacity="1.000000" stroke="none" 
	d="
M179.829544,86.985260 
	C178.535339,86.986816 177.241119,86.988365 175.558685,86.987457 
	C175.120178,80.963181 175.069885,74.941368 175.482819,68.457413 
	C177.240982,67.994293 178.535904,67.993324 179.905609,68.455902 
	C179.930115,74.941391 179.879822,80.963326 179.829544,86.985260 
z"/>
<path fill="#A080F8" opacity="1.000000" stroke="none" 
	d="
M215.961960,20.118965 
	C217.137329,19.490841 218.312683,18.862717 219.799438,18.094791 
	C225.333359,21.392143 230.555878,24.829294 235.708069,28.824467 
	C234.720337,29.937630 233.802948,30.492773 232.532425,31.019115 
	C226.773529,27.366531 221.367737,23.742746 215.961960,20.118965 
z"/>
<path fill="#7170E2" opacity="1.000000" stroke="none" 
	d="
M68.990967,76.341385 
	C70.220757,76.003250 71.273705,76.012939 72.674698,76.403244 
	C72.504219,78.415321 71.985695,80.046783 71.844238,80.491867 
	C75.400604,83.358101 78.627975,85.959175 81.438156,88.654541 
	C79.999596,89.203911 78.978218,89.658997 77.956848,90.114090 
	C76.154251,89.043068 74.426071,87.812660 72.535538,86.929977 
	C66.064568,83.908684 66.042824,83.955254 68.990967,76.341385 
z"/>
<path fill="#3D5FCA" opacity="1.000000" stroke="none" 
	d="
M72.833099,151.995987 
	C71.819641,152.291000 70.806183,152.586014 69.480309,152.935944 
	C68.228371,150.344894 67.288841,147.698929 66.370880,145.113693 
	C70.625908,143.134064 74.065445,141.533844 78.306061,139.873657 
	C80.110970,139.889633 81.114784,139.965561 82.063126,140.397369 
	C78.801704,143.231216 75.595772,145.709167 72.105354,148.407013 
	C72.273865,149.238052 72.553482,150.617020 72.833099,151.995987 
z"/>
<path fill="#4160CC" opacity="1.000000" stroke="none" 
	d="
M175.166718,149.990021 
	C175.118881,144.631866 175.071045,139.273727 175.484207,133.454529 
	C177.240814,132.991989 178.536407,132.990479 179.904388,133.452454 
	C179.928940,139.274368 179.881104,144.632767 179.444336,149.993317 
	C177.759171,149.993652 176.462952,149.991837 175.166718,149.990021 
z"/>
<path fill="#947CF3" opacity="1.000000" stroke="none" 
	d="
M175.170609,51.986668 
	C175.120178,46.962528 175.069733,41.938389 175.484009,36.453377 
	C177.241440,35.991787 178.534149,35.991077 179.903748,36.452396 
	C179.930222,41.938812 179.879791,46.963203 179.441132,51.989357 
	C177.758789,51.989635 176.464706,51.988152 175.170609,51.986668 
z"/>
<path fill="#8377EB" opacity="1.000000" stroke="none" 
	d="
M175.093079,52.448807 
	C176.464706,51.988152 177.758789,51.989635 179.518677,52.451477 
	C179.933243,57.938671 179.882034,62.965508 179.830826,67.992348 
	C178.535904,67.993324 177.240982,67.994293 175.557617,67.993973 
	C175.117966,62.965435 175.066757,57.938190 175.093079,52.448807 
z"/>
<path fill="#A080F8" opacity="1.000000" stroke="none" 
	d="
M179.826843,35.990364 
	C178.534149,35.991077 177.241440,35.991787 175.560944,35.991531 
	C175.120758,30.966024 175.068375,25.941484 175.092224,20.455097 
	C176.463745,19.994223 177.759048,19.995197 179.519165,20.456841 
	C179.931610,25.941793 179.879227,30.966080 179.826843,35.990364 
z"/>
<path fill="#4762CE" opacity="1.000000" stroke="none" 
	d="
M130.832397,123.988052 
	C133.190826,128.960632 135.549271,133.933197 137.405426,139.358551 
	C135.895615,139.887924 134.888077,139.964508 133.569107,139.887970 
	C130.893951,134.486023 128.530228,129.237183 126.555351,123.991104 
	C128.240280,123.991913 129.536346,123.989983 130.832397,123.988052 
z"/>
<path fill="#5065D3" opacity="1.000000" stroke="none" 
	d="
M179.832001,132.988983 
	C178.536407,132.990479 177.240814,132.991989 175.556610,132.991196 
	C175.120438,128.298737 175.072876,123.608589 175.484909,118.457901 
	C177.240707,117.996544 178.536896,117.995720 179.903900,118.456619 
	C179.927139,123.608551 179.879578,128.298767 179.832001,132.988983 
z"/>
<path fill="#335BC5" opacity="1.000000" stroke="none" 
	d="
M175.096115,150.451691 
	C176.462952,149.991837 177.759171,149.993652 179.514923,150.455353 
	C179.927505,155.607925 179.880554,160.300613 179.833588,164.993286 
	C178.537079,164.994415 177.240570,164.995529 175.555237,164.995026 
	C175.119446,160.300049 175.072464,155.606689 175.096115,150.451691 
z"/>
<path fill="#2356BE" opacity="1.000000" stroke="none" 
	d="
M211.418686,180.895630 
	C210.025024,180.709427 208.938736,180.370285 207.560257,179.683258 
	C211.892502,176.411835 216.516937,173.488297 221.558411,170.683517 
	C223.355301,171.217300 224.735153,171.632324 226.115005,172.047333 
	C222.820312,174.013977 219.520844,175.972687 216.233063,177.950836 
	C214.718933,178.861847 213.227676,179.810867 211.418686,180.895630 
z"/>
<path fill="#3D5FCA" opacity="1.000000" stroke="none" 
	d="
M133.880539,140.041092 
	C134.888077,139.964508 135.895615,139.887924 137.404205,139.744598 
	C141.853394,142.877426 145.801514,146.076950 149.899872,149.582672 
	C149.191452,150.516861 148.332794,151.144836 146.829956,151.876709 
	C142.084045,148.000763 137.982300,144.020935 133.880539,140.041092 
z"/>
<path fill="#5868D7" opacity="1.000000" stroke="none" 
	d="
M130.738937,123.597534 
	C129.536346,123.989983 128.240280,123.991913 126.492416,123.561218 
	C126.081665,118.084770 126.122726,113.040955 126.531036,107.998055 
	C127.877632,107.998413 128.856979,107.997856 129.836319,107.997299 
	C130.106033,113.067200 130.375748,118.137108 130.738937,123.597534 
z"/>
<path fill="#5868D7" opacity="1.000000" stroke="none" 
	d="
M179.833099,117.994896 
	C178.536896,117.995720 177.240707,117.996544 175.555695,117.996246 
	C175.117554,113.633949 175.068222,109.272766 175.092041,104.451416 
	C176.462296,103.993011 177.759399,103.994774 179.518799,104.454491 
	C179.931778,109.273262 179.882446,113.634079 179.833099,117.994896 
z"/>
<path fill="#7170E2" opacity="1.000000" stroke="none" 
	d="
M148.883698,75.957001 
	C150.113754,76.517197 151.343796,77.077393 152.810562,77.874626 
	C149.276779,80.662804 145.506287,83.213959 141.066895,85.843079 
	C139.221664,85.601143 138.045364,85.281242 137.015991,84.652603 
	C141.069855,81.548233 144.976776,78.752617 148.883698,75.957001 
z"/>
<path fill="#2C59C2" opacity="1.000000" stroke="none" 
	d="
M226.465454,172.013031 
	C224.735153,171.632324 223.355301,171.217300 221.847534,170.456787 
	C225.772751,167.395340 229.825882,164.679367 234.173492,162.098236 
	C235.328278,162.857407 236.188583,163.481705 237.048889,164.106018 
	C233.637894,166.730255 230.226898,169.354477 226.465454,172.013031 
z"/>
<path fill="#8377EB" opacity="1.000000" stroke="none" 
	d="
M255.123840,50.957363 
	C257.070129,54.726017 259.016449,58.494667 260.586578,62.687668 
	C259.195282,63.406120 258.180115,63.700226 257.008972,63.667801 
	C254.860519,59.575382 252.868073,55.809498 251.214066,51.897079 
	C252.742950,51.486156 253.933395,51.221760 255.123840,50.957363 
z"/>
<path fill="#8C79EF" opacity="1.000000" stroke="none" 
	d="
M254.976089,50.637520 
	C253.933395,51.221760 252.742950,51.486156 250.907608,51.738548 
	C247.800278,48.166058 245.337830,44.605572 243.170959,40.908939 
	C244.328049,40.142246 245.189545,39.511700 246.051041,38.881149 
	C248.976807,42.693317 251.902573,46.505497 254.976089,50.637520 
z"/>
<path fill="#2356BE" opacity="1.000000" stroke="none" 
	d="
M93.119797,183.965424 
	C91.947289,184.280792 90.774788,184.596161 89.242828,184.975418 
	C86.152107,183.218582 86.397949,181.168930 88.466911,179.036499 
	C90.047142,177.407822 91.682625,175.832748 93.908798,174.234192 
	C95.626022,174.486481 96.727982,174.738434 97.786713,175.322662 
	C96.202255,178.425095 94.661026,181.195267 93.119797,183.965424 
z"/>
<path fill="#947CF3" opacity="1.000000" stroke="none" 
	d="
M245.916321,38.573433 
	C245.189545,39.511700 244.328049,40.142246 242.866913,40.777813 
	C239.140015,37.537861 236.012787,34.292889 232.885544,31.047916 
	C233.802948,30.492773 234.720337,29.937630 235.846436,29.137518 
	C239.297272,32.016937 242.539429,35.141327 245.916321,38.573433 
z"/>
<path fill="#8C79EF" opacity="1.000000" stroke="none" 
	d="
M88.551056,44.112221 
	C90.068420,44.224045 91.254959,44.485809 92.642296,45.211090 
	C92.901947,46.622375 92.613342,47.823055 93.084671,48.470577 
	C94.509392,50.427902 96.229042,52.170555 97.490196,54.013351 
	C96.061134,54.369156 94.975616,54.708481 93.890091,55.047806 
	C92.119743,53.394253 89.895386,52.005058 88.728096,50.000355 
	C87.853493,48.498318 88.339844,46.203827 88.551056,44.112221 
z"/>
<path fill="#7C74E8" opacity="1.000000" stroke="none" 
	d="
M257.164978,63.994331 
	C258.180115,63.700226 259.195282,63.406120 260.522949,63.054523 
	C262.227020,67.051445 263.618530,71.105858 264.669556,75.570061 
	C263.275055,75.984238 262.221069,75.988609 261.091400,75.612823 
	C259.732147,71.486549 258.448547,67.740440 257.164978,63.994331 
z"/>
<path fill="#8C79EF" opacity="1.000000" stroke="none" 
	d="
M171.837402,41.996231 
	C171.881927,46.355419 171.926453,50.714603 171.534836,55.534725 
	C170.122086,55.995125 169.145493,55.994591 168.098969,55.534317 
	C168.073563,50.715145 168.118088,46.355713 168.530121,41.997746 
	C169.877533,41.998215 170.857468,41.997223 171.837402,41.996231 
z"/>
<path fill="#0E4FB4" opacity="1.000000" stroke="none" 
	d="
M171.895737,209.534378 
	C170.856583,209.996475 169.877670,209.997391 168.471375,209.535660 
	C168.084320,204.713364 168.124634,200.353714 168.531982,195.995682 
	C169.877686,195.996292 170.856369,195.995270 171.835052,195.994263 
	C171.875366,200.353912 171.915680,204.713547 171.895737,209.534378 
z"/>
<path fill="#666CDD" opacity="1.000000" stroke="none" 
	d="
M266.835571,87.993805 
	C267.213287,92.025024 267.591034,96.056229 267.534576,100.542206 
	C266.122406,100.996902 265.144440,100.996819 264.098877,100.550888 
	C263.742249,96.068016 263.453186,92.030983 263.531250,87.995789 
	C264.877441,87.996353 265.856506,87.995079 266.835571,87.993805 
z"/>
<path fill="#335BC5" opacity="1.000000" stroke="none" 
	d="
M237.351135,163.958954 
	C236.188583,163.481705 235.328278,162.857407 234.322281,161.795792 
	C237.079269,158.560349 239.981949,155.762207 243.221603,153.109741 
	C244.744080,153.516449 245.929581,153.777481 247.115082,154.038498 
	C243.961182,157.296295 240.807281,160.554092 237.351135,163.958954 
z"/>
<path fill="#666CDD" opacity="1.000000" stroke="none" 
	d="
M136.869049,84.961342 
	C138.045364,85.281242 139.221664,85.601143 140.758453,85.986298 
	C138.794296,89.157494 136.469681,92.263443 133.526688,95.662003 
	C131.981018,95.830246 131.053696,95.705872 130.104797,95.196060 
	C132.345139,91.527534 134.607101,88.244438 136.869049,84.961342 
z"/>
<path fill="#5E6AD9" opacity="1.000000" stroke="none" 
	d="
M130.126389,95.581490 
	C131.053696,95.705872 131.981018,95.830246 133.376099,95.975937 
	C132.560074,99.741631 131.276291,103.486008 129.914413,107.613846 
	C128.856979,107.997856 127.877632,107.998413 126.463821,107.596642 
	C127.395035,103.323372 128.760712,99.452431 130.126389,95.581490 
z"/>
<path fill="#4762CE" opacity="1.000000" stroke="none" 
	d="
M263.839569,123.995895 
	C262.471344,127.555801 261.103088,131.115692 259.090057,134.804810 
	C257.350159,134.622681 256.255066,134.311340 255.215149,133.645096 
	C256.801849,129.848450 258.333405,126.406708 260.182312,123.103149 
	C261.612946,123.492859 262.726257,123.744377 263.839569,123.995895 
z"/>
<path fill="#3D5FCA" opacity="1.000000" stroke="none" 
	d="
M247.419495,153.890869 
	C245.929581,153.777481 244.744080,153.516449 243.372330,152.797607 
	C245.418076,149.547516 247.650055,146.755234 250.197327,144.101089 
	C251.619202,144.491577 252.725784,144.743912 253.832397,144.996277 
	C251.796234,147.911926 249.760056,150.827576 247.419495,153.890869 
z"/>
<path fill="#666CDD" opacity="1.000000" stroke="none" 
	d="
M78.110504,90.449585 
	C78.978218,89.658997 79.999596,89.203911 81.729828,88.870552 
	C82.570686,92.992729 82.702690,96.993179 82.834694,100.993637 
	C81.741745,100.686096 80.648796,100.378548 79.218964,100.014999 
	C78.676109,96.901024 78.470139,93.843056 78.110504,90.449585 
z"/>
<path fill="#947CF3" opacity="1.000000" stroke="none" 
	d="
M171.907379,41.538689 
	C170.857468,41.997223 169.877533,41.998215 168.460175,41.539169 
	C168.068939,37.051121 168.115143,33.023113 168.529068,28.997351 
	C169.877411,28.998096 170.858032,28.996595 171.838654,28.995094 
	C171.884888,33.023777 171.931137,37.052456 171.907379,41.538689 
z"/>
<path fill="#7170E2" opacity="1.000000" stroke="none" 
	d="
M266.902252,87.560204 
	C265.856506,87.995079 264.877441,87.996353 263.464661,87.575531 
	C262.409668,83.433281 261.788391,79.713127 261.167114,75.992981 
	C262.221069,75.988609 263.275055,75.984238 264.724213,75.972183 
	C265.735901,79.685211 266.352417,83.405907 266.902252,87.560204 
z"/>
<path fill="#1451B7" opacity="1.000000" stroke="none" 
	d="
M124.115005,205.034088 
	C123.063751,205.020996 122.012505,205.007919 120.567055,204.992889 
	C120.794830,201.609146 121.416801,198.227356 122.103531,194.420425 
	C123.145012,193.996460 124.121735,193.997665 125.646240,194.340240 
	C125.501030,198.132446 124.808022,201.583252 124.115005,205.034088 
z"/>
<path fill="#4160CC" opacity="1.000000" stroke="none" 
	d="
M253.990707,144.678604 
	C252.725784,144.743912 251.619202,144.491577 250.256485,143.742767 
	C251.720245,140.164200 253.440109,137.082108 255.159973,134.000000 
	C256.255066,134.311340 257.350159,134.622681 258.782837,134.991089 
	C257.463287,138.152405 255.806168,141.256683 253.990707,144.678604 
z"/>
<path fill="#5E6AD9" opacity="1.000000" stroke="none" 
	d="
M264.166443,100.996735 
	C265.144440,100.996819 266.122406,100.996902 267.467133,100.995636 
	C267.484436,104.855713 267.135010,108.717133 266.132080,112.672989 
	C264.374268,112.509445 263.269958,112.251465 262.256500,111.598022 
	C262.953674,107.800613 263.560059,104.398674 264.166443,100.996735 
z"/>
<path fill="#A080F8" opacity="1.000000" stroke="none" 
	d="
M120.205429,25.357746 
	C121.275970,24.743486 122.380524,24.491777 124.130180,24.276031 
	C125.220543,27.887672 125.665810,31.463346 126.111084,35.039021 
	C125.060638,35.024090 124.010201,35.009163 122.565826,34.992626 
	C121.527748,31.900780 120.883606,28.810539 120.205429,25.357746 
z"/>
<path fill="#5366D4" opacity="1.000000" stroke="none" 
	d="
M262.165680,111.993484 
	C263.269958,112.251465 264.374268,112.509445 265.791626,112.909760 
	C265.393433,116.435577 264.682129,119.819054 263.905212,123.599213 
	C262.726257,123.744377 261.612946,123.492859 260.241150,122.703316 
	C260.710327,118.774689 261.438019,115.384087 262.165680,111.993484 
z"/>
<path fill="#2356BE" opacity="1.000000" stroke="none" 
	d="
M171.834930,171.995209 
	C171.875900,175.689941 171.916855,179.384659 171.528870,183.537704 
	C170.122253,183.995331 169.144547,183.994644 168.104492,183.537155 
	C168.083145,179.385300 168.124130,175.690216 168.532257,171.996704 
	C169.877884,171.997238 170.856415,171.996216 171.834930,171.995209 
z"/>
<path fill="#8377EB" opacity="1.000000" stroke="none" 
	d="
M168.168884,55.994057 
	C169.145493,55.994591 170.122086,55.995125 171.464920,55.994438 
	C171.876724,59.689091 171.922302,63.384972 171.899353,67.536819 
	C170.854401,67.993546 169.877975,67.994301 168.466843,67.537872 
	C168.077728,63.385151 168.123306,59.689606 168.168884,55.994057 
z"/>
<path fill="#1A53B9" opacity="1.000000" stroke="none" 
	d="
M168.166855,183.993942 
	C169.144547,183.994644 170.122253,183.995331 171.466553,183.994415 
	C171.874298,187.688583 171.915436,191.384354 171.895813,195.537170 
	C170.856369,195.995270 169.877686,195.996292 168.471191,195.538635 
	C168.084549,191.384613 168.125702,187.689285 168.166855,183.993942 
z"/>
<path fill="#A080F8" opacity="1.000000" stroke="none" 
	d="
M171.907806,28.538967 
	C170.858032,28.996595 169.877411,28.998096 168.459900,28.541195 
	C168.069778,24.387009 168.116516,20.691223 168.163269,16.995440 
	C169.142868,16.996340 170.122467,16.997240 171.469391,16.996456 
	C171.883453,20.690792 171.930206,24.386816 171.907806,28.538967 
z"/>
<path fill="#4762CE" opacity="1.000000" stroke="none" 
	d="
M82.118607,140.041473 
	C81.114784,139.965561 80.110970,139.889633 78.609062,139.732574 
	C78.409538,136.378769 78.708099,133.106094 78.946564,129.438782 
	C79.874222,128.975006 80.861969,128.905884 82.460999,129.128174 
	C84.539307,133.120468 84.869797,136.719315 82.118607,140.041473 
z"/>
<path fill="#2C59C2" opacity="1.000000" stroke="none" 
	d="
M171.898743,171.542862 
	C170.856415,171.996216 169.877884,171.997238 168.469147,171.542389 
	C168.080292,167.723221 168.121658,164.359879 168.163010,160.996552 
	C169.142960,160.997223 170.122925,160.997894 171.469910,160.996979 
	C171.878830,164.360428 171.920700,167.725464 171.898743,171.542862 
z"/>
<path fill="#8377EB" opacity="1.000000" stroke="none" 
	d="
M93.945091,55.438179 
	C94.975616,54.708481 96.061134,54.369156 97.683861,54.383255 
	C97.956459,58.443962 97.691856,62.151249 97.427254,65.858536 
	C96.525551,65.261078 95.623856,64.663612 94.303123,64.012886 
	C93.922760,61.249260 93.961426,58.538910 93.945091,55.438179 
z"/>
<path fill="#2C59C2" opacity="1.000000" stroke="none" 
	d="
M97.829948,174.990387 
	C96.727982,174.738434 95.626022,174.486481 94.211510,174.093170 
	C93.936371,171.239441 93.973793,168.527115 93.950378,165.428009 
	C94.875641,164.971710 95.861732,164.902161 97.460587,165.121002 
	C97.992218,168.603058 97.911079,171.796707 97.829948,174.990387 
z"/>
<path fill="#FFFFFF" opacity="1.000000" stroke="none" 
	d="
M262.256500,111.598015 
	C261.438019,115.384087 260.710327,118.774689 259.923828,122.565132 
	C258.333405,126.406708 256.801849,129.848450 255.215149,133.645111 
	C253.440109,137.082108 251.720245,140.164200 249.941208,143.604630 
	C247.650055,146.755234 245.418076,149.547516 243.035355,152.651932 
	C239.981949,155.762207 237.079269,158.560349 234.027802,161.660934 
	C229.825882,164.679367 225.772751,167.395340 221.430511,170.338043 
	C216.516937,173.488297 211.892502,176.411835 207.216522,179.667389 
	C206.482910,180.993744 205.800827,181.988068 204.523575,183.850006 
	C204.245087,181.789978 204.106033,180.761383 203.899612,179.362869 
	C204.662643,174.859299 203.223648,172.134308 199.201569,170.464325 
	C198.130737,170.019714 197.696365,168.042175 196.963867,165.922699 
	C197.011810,161.063583 197.065674,157.050186 197.421448,152.844711 
	C199.831009,149.137299 201.938675,145.621979 204.399475,142.049438 
	C211.097519,138.047379 217.267197,133.914673 221.002502,126.655273 
	C222.391891,121.876518 223.612579,117.433891 224.883667,112.586578 
	C223.900391,108.453201 222.866699,104.724510 221.833008,100.995827 
	C216.418976,89.593605 202.006744,87.507217 191.896713,96.454315 
	C188.813248,94.947021 185.682251,93.711166 182.901810,91.928490 
	C181.583435,91.083191 180.934692,89.193481 179.906067,87.381104 
	C179.879822,80.963326 179.930115,74.941391 179.905609,68.455902 
	C179.882034,62.965508 179.933243,57.938671 179.906906,52.449711 
	C179.879791,46.963203 179.930222,41.938812 179.903748,36.452393 
	C179.879227,30.966080 179.931610,25.941793 179.907776,20.455704 
	C179.831543,17.526011 179.831543,15.058122 179.831543,12.177513 
	C192.703888,11.149137 203.941574,15.627430 215.582275,20.057144 
	C221.367737,23.742746 226.773529,27.366531 232.532425,31.019115 
	C236.012787,34.292889 239.140015,37.537861 242.571320,40.913960 
	C245.337830,44.605572 247.800278,48.166058 250.569168,51.885075 
	C252.868073,55.809498 254.860519,59.575382 257.008972,63.667801 
	C258.448547,67.740440 259.732147,71.486549 261.091431,75.612823 
	C261.788391,79.713127 262.409668,83.433281 263.097534,87.573692 
	C263.453186,92.030983 263.742249,96.068016 264.098877,100.550888 
	C263.560059,104.398674 262.953674,107.800613 262.256500,111.598015 
z"/>
<path fill="#FFFFFF" opacity="1.000000" stroke="none" 
	d="
M179.903900,118.456619 
	C179.882446,113.634079 179.931778,109.273262 179.907959,104.452339 
	C179.957382,101.394859 180.079971,98.797485 180.257416,95.038162 
	C183.076965,96.767509 185.155899,98.042618 187.593719,99.537849 
	C186.166351,101.151695 185.205902,102.237602 184.006134,104.029533 
	C183.529877,107.801453 182.521896,111.067619 183.252945,113.882095 
	C184.149155,117.332397 185.881577,120.864174 190.674210,121.060555 
	C194.279327,121.208275 197.173538,120.549026 198.957733,117.148376 
	C201.250702,112.778038 202.556686,108.403557 199.123413,103.965057 
	C198.157700,102.328468 197.191986,100.691887 196.213516,99.033699 
	C203.529144,92.863472 212.481689,93.956100 217.642670,102.267441 
	C218.724442,106.211327 219.445724,109.601517 220.095184,113.412216 
	C218.997238,117.854782 217.971115,121.876831 216.631714,126.043869 
	C214.247238,128.451401 212.351822,130.914124 210.060516,132.926025 
	C207.171982,135.462311 203.960281,137.630539 200.581879,140.096130 
	C197.906860,144.487381 195.537964,148.740021 193.099319,153.450775 
	C193.075821,157.936722 193.122055,161.964554 193.168304,165.992386 
	C193.041550,167.136002 192.914795,168.279633 192.756424,169.708435 
	C188.697205,169.708435 184.650818,169.708435 180.238159,169.708435 
	C180.146072,168.378998 180.058899,167.120621 179.902664,165.427765 
	C179.880554,160.300613 179.927505,155.607925 179.903870,150.453217 
	C179.881104,144.632767 179.928940,139.274368 179.904388,133.452469 
	C179.879578,128.298767 179.927139,123.608551 179.903900,118.456619 
z"/>
<path fill="#5868D7" opacity="1.000000" stroke="none" 
	d="
M198.786087,104.019447 
	C202.556686,108.403557 201.250702,112.778038 198.957733,117.148376 
	C197.173538,120.549026 194.279327,121.208275 190.674210,121.060555 
	C185.881577,120.864174 184.149155,117.332397 183.252945,113.882095 
	C182.521896,111.067619 183.529877,107.801453 183.966492,104.364502 
	C185.258148,104.305702 186.350098,104.617973 187.719910,105.384392 
	C188.012634,108.616135 187.606125,111.493729 188.231094,114.126480 
	C188.516891,115.330368 190.786102,116.667458 192.246704,116.781670 
	C193.264984,116.861298 194.536285,115.051567 195.522690,113.934090 
	C198.218842,110.879776 196.579453,107.922951 195.166290,104.989960 
	C196.260452,104.684586 197.354599,104.379211 198.786087,104.019447 
z"/>
<path fill="#FFFFFF" opacity="1.000000" stroke="none" 
	d="
M195.002533,104.662880 
	C196.579453,107.922951 198.218842,110.879776 195.522690,113.934090 
	C194.536285,115.051567 193.264984,116.861298 192.246704,116.781670 
	C190.786102,116.667458 188.516891,115.330368 188.231094,114.126480 
	C187.606125,111.493729 188.012634,108.616135 188.056763,105.440735 
	C190.208878,103.401466 192.276962,101.521637 195.002533,104.662880 
z"/>
<path fill="#5E6AD9" opacity="1.000000" stroke="none" 
	d="
M220.167023,112.991714 
	C219.445724,109.601517 218.724442,106.211327 217.947723,102.434601 
	C218.977020,101.708427 220.061737,101.368774 221.489746,101.012466 
	C222.866699,104.724510 223.900391,108.453201 224.494843,112.588562 
	C222.759415,112.994064 221.463211,112.992889 220.167023,112.991714 
z"/>
<path fill="#FFFFFF" opacity="1.000000" stroke="none" 
	d="
M206.104065,190.564026 
	C205.239044,191.992188 204.339951,193.821609 203.376999,193.855850 
	C196.422165,194.103134 189.452652,194.060516 182.493057,193.892044 
	C181.639832,193.871399 180.817841,192.560959 179.906845,191.421005 
	C179.956192,189.845917 180.080078,188.698059 180.262039,187.012115 
	C188.008179,187.012115 195.753128,186.912323 203.487747,187.149384 
	C204.368317,187.176376 205.190948,189.093506 206.104065,190.564026 
z"/>
<path fill="#FFFFFF" opacity="1.000000" stroke="none" 
	d="
M179.901306,179.422455 
	C179.951416,177.517548 180.070587,176.042114 180.234100,174.017700 
	C185.538391,174.017700 190.829453,173.721954 196.047256,174.209778 
	C197.489059,174.344574 198.712769,176.812012 200.102142,178.601074 
	C200.038818,180.139084 199.909882,181.285187 199.718521,182.986206 
	C193.990097,182.986206 188.237640,183.120087 182.504654,182.846115 
	C181.614243,182.803574 180.812912,180.896683 179.901306,179.422455 
z"/>
<path fill="#FFFFFF" opacity="1.000000" stroke="none" 
	d="
M179.900620,202.422531 
	C179.960098,200.848297 180.086853,199.702118 180.273560,198.014038 
	C188.012955,198.014038 195.750473,197.913773 203.477585,198.151352 
	C204.361664,198.178528 205.187622,200.095551 206.103607,201.565399 
	C206.035416,203.139175 205.904144,204.283875 205.709152,205.984344 
	C197.981384,205.984344 190.250107,206.085007 182.529312,205.846497 
	C181.645508,205.819214 180.820297,203.895172 179.900620,202.422531 
z"/>
<path fill="#FFFFFF" opacity="1.000000" stroke="none" 
	d="
M204.874619,211.542328 
	C198.706726,220.242615 189.771133,217.747742 181.552277,217.735062 
	C181.020615,217.734238 180.492859,215.211166 179.898163,213.428177 
	C180.597656,212.003555 181.341202,210.171539 182.130112,210.151794 
	C189.394852,209.969925 196.667618,210.089478 203.937241,210.183273 
	C204.252945,210.187347 204.560898,210.793839 204.874619,211.542328 
z"/>
<path fill="#335BC5" opacity="1.000000" stroke="none" 
	d="
M193.534622,165.994095 
	C193.122055,161.964554 193.075821,157.936722 193.494339,153.452698 
	C195.012589,153.009918 196.066071,153.023346 197.119553,153.036774 
	C197.065674,157.050186 197.011810,161.063583 196.894806,165.534698 
	C195.854782,165.993546 194.877869,165.994675 193.534622,165.994095 
z"/>
<path fill="#FFFFFF" opacity="1.000000" stroke="none" 
	d="
M97.786713,175.322647 
	C97.911079,171.796707 97.992218,168.603058 97.951187,165.060394 
	C94.269173,157.126129 88.637199,155.811783 76.751198,160.146210 
	C75.580360,157.694550 74.376160,155.173050 73.002533,152.323761 
	C72.553482,150.617020 72.273865,149.238052 72.105354,148.407013 
	C75.595772,145.709167 78.801704,143.231216 82.063126,140.397369 
	C84.869797,136.719315 84.539307,133.120468 82.952515,129.068253 
	C80.011467,120.388283 72.718246,122.282608 65.979515,121.837784 
	C65.979515,119.366486 65.979515,117.125839 65.906883,114.438385 
	C65.940659,112.188065 66.047058,110.384544 66.171021,108.283371 
	C72.463364,107.918968 78.715683,107.410873 82.804611,101.333221 
	C82.702690,96.993179 82.570686,92.992729 82.147018,88.776260 
	C78.627975,85.959175 75.400604,83.358101 71.844238,80.491867 
	C71.985695,80.046783 72.504219,78.415321 73.069473,76.412720 
	C74.336967,73.816193 75.557739,71.590820 76.958099,69.038078 
	C83.912064,72.094406 91.216026,74.475258 97.245407,66.119453 
	C97.691856,62.151249 97.956459,58.443962 98.027397,54.366776 
	C96.229042,52.170555 94.509392,50.427902 93.084671,48.470577 
	C92.613342,47.823055 92.901947,46.622375 92.978973,45.358727 
	C95.873978,42.458637 98.633102,39.874432 101.732018,36.971977 
	C105.540749,42.972385 111.193794,45.444767 118.026619,43.811249 
	C121.988091,42.864185 125.415596,40.508297 126.064362,35.413067 
	C125.665810,31.463346 125.220543,27.887672 124.444992,24.138542 
	C125.622421,22.661301 126.972252,21.075098 128.676270,20.122463 
	C131.008606,18.818575 133.610062,17.996098 136.566528,16.772640 
	C137.152023,18.504860 137.689819,20.095987 138.553940,21.862946 
	C140.924713,27.514500 145.494400,29.605146 150.716309,29.885319 
	C156.493240,30.195269 160.238312,26.657322 162.802521,19.356052 
	C162.833603,16.898987 162.833603,14.803923 162.833603,12.358408 
	C164.613876,12.358408 166.103256,12.358408 168.022079,12.358408 
	C168.022079,13.635617 168.022079,14.884406 168.092682,16.564316 
	C168.116516,20.691223 168.069778,24.387009 168.092194,28.538948 
	C168.115143,33.023113 168.068939,37.051121 168.092682,41.537704 
	C168.118088,46.355713 168.073563,50.715145 168.098969,55.534317 
	C168.123306,59.689606 168.077728,63.385151 168.100677,67.536621 
	C167.118500,68.993118 166.231720,70.508644 164.988449,70.904488 
	C159.797318,72.557259 154.499069,73.873611 149.061890,75.635147 
	C144.976776,78.752617 141.069855,81.548233 137.015991,84.652603 
	C134.607101,88.244438 132.345139,91.527534 130.104797,95.196060 
	C128.760712,99.452431 127.395035,103.323372 126.096573,107.595726 
	C126.122726,113.040955 126.081665,118.084770 126.103546,123.558472 
	C128.530228,129.237183 130.893951,134.486023 133.569107,139.887970 
	C137.982300,144.020935 142.084045,148.000763 146.536530,152.014343 
	C152.425873,154.034622 157.978790,155.982788 163.494034,158.032288 
	C165.049530,158.610306 166.494751,159.485153 168.076782,160.610214 
	C168.121658,164.359879 168.080292,167.723221 168.102036,171.540848 
	C168.124130,175.690216 168.083145,179.385300 168.104492,183.537155 
	C168.125702,187.689285 168.084549,191.384613 168.104172,195.537018 
	C168.124634,200.353714 168.084320,204.713364 168.104248,209.534149 
	C168.033356,212.559326 167.902191,215.123337 167.767487,217.756531 
	C161.838684,218.120270 163.208298,213.954407 162.900223,210.423767 
	C161.634903,203.309326 157.288147,199.647507 150.876007,199.219055 
	C145.732346,198.875366 141.551697,201.535904 138.943787,206.617493 
	C138.045135,208.619171 137.208710,210.272461 135.971436,212.718063 
	C131.828888,210.298233 127.947411,208.030899 124.090469,205.398819 
	C124.808022,201.583252 125.501030,198.132446 126.012527,194.340103 
	C125.892189,189.197464 122.243645,186.829056 118.781410,185.622681 
	C114.725494,184.209442 109.996010,183.834183 106.256630,187.276428 
	C104.686096,188.722168 103.343643,190.415665 101.249878,192.704529 
	C98.517441,189.636078 96.116852,186.940277 93.418030,184.104950 
	C94.661026,181.195267 96.202255,178.425095 97.786713,175.322647 
z"/>
<path fill="#4762CE" opacity="1.000000" stroke="none" 
	d="
M200.888000,139.957550 
	C203.960281,137.630539 207.171982,135.462311 210.060516,132.926025 
	C212.351822,130.914124 214.247238,128.451401 216.887726,126.277481 
	C218.582626,126.574547 219.708206,126.782982 220.833801,126.991425 
	C217.267197,133.914673 211.097519,138.047379 204.193100,141.803833 
	C202.718399,141.062805 201.803192,140.510178 200.888000,139.957550 
z"/>
<path fill="#5366D4" opacity="1.000000" stroke="none" 
	d="
M221.002502,126.655281 
	C219.708206,126.782982 218.582626,126.574547 217.201019,126.132500 
	C217.971115,121.876831 218.997238,117.854782 220.095184,113.412216 
	C221.463211,112.992889 222.759415,112.994064 224.444427,112.993256 
	C223.612579,117.433891 222.391891,121.876518 221.002502,126.655281 
z"/>
<path fill="#3D5FCA" opacity="1.000000" stroke="none" 
	d="
M200.581879,140.096130 
	C201.803192,140.510178 202.718399,141.062805 203.839966,141.861038 
	C201.938675,145.621979 199.831009,149.137299 197.421448,152.844696 
	C196.066071,153.023346 195.012589,153.009918 193.564087,152.994568 
	C195.537964,148.740021 197.906860,144.487381 200.581879,140.096130 
z"/>
  <text x="280" y="170" font-family="Arial, sans-serif" font-size="200" fill="black">IQR Analytics</text>
</svg>